<?xml version="1.0" encoding="utf-8"?>
<svg viewBox="100 143 300 220" xmlns="http://www.w3.org/2000/svg">
  <path fill="#931004" stroke="#931004" stroke-width="2.8346" stroke-miterlimit="10" d="M 288.65 196.15 C 288.65 180.45 275.95 167.85 260.35 167.85 C 244.65 167.85 232.05 180.55 232.05 196.15 L 288.65 196.15 Z"/>
  <path fill="#B2B2B2" d="M 183.15 295.05 L 220.65 256.95 L 213.15 252.55 L 215.45 259.95 L 208.15 257.05 L 209.95 265.65 C 209.95 265.65 203.15 264.15 201.85 259.65 C 201.85 259.65 201.75 268.35 204.65 271.35 C 204.65 271.35 197.05 268.65 196.05 264.35 C 196.05 264.35 194.25 272.75 198.35 277.65 C 198.35 277.65 194.05 276.45 191.15 270.95 C 191.15 270.95 189.35 278.05 193.65 282.35 C 193.65 282.35 189.45 282.65 185.95 278.85 C 185.95 278.85 183.45 284.85 186.75 289.65 C 186.75 289.65 178.55 287.55 173.45 280.75 C 173.65 280.65 177.25 291.55 183.15 295.05 Z"/>
  <path fill="#E30613" stroke="#E30613" stroke-width="1.0751" stroke-linecap="round" stroke-linejoin="round" stroke-miterlimit="10" d="M 181.25 294.85 L 235.65 240.25 C 235.65 240.25 257.75 217.05 258.55 252.15 L 204.45 305.65 C 204.45 305.65 198.35 312.25 191.45 306.65 C 184.55 301.05 181.25 294.85 181.25 294.85 Z"/>
  <path fill="#DCE169" stroke="#DCE169" stroke-miterlimit="10" d="M 237.75 259.95 C 237.75 259.95 238.75 261.45 240.35 259.95 C 241.95 258.45 240.45 257.95 239.05 257.95 C 237.65 257.95 236.55 259.35 237.75 259.95 Z"/>
  <path fill="#B2B2B2" d="M 164.65 194.75 L 226.15 242.95 C 226.15 242.95 210.95 242.15 206.15 247.25 C 206.15 247.25 208.85 239.05 212.45 234.95 L 199.75 244.35 C 199.75 244.35 203.05 232.65 205.95 230.05 C 205.95 230.05 197.65 235.75 192.25 240.55 C 192.25 240.55 193.75 230.75 198.35 224.75 C 198.35 224.75 192.75 228.65 186.75 233.75 C 186.75 233.75 187.45 222.95 190.05 218.75 L 179.05 227.25 L 184.15 213.45 L 170.75 221.95 L 173.55 205.65 C 173.55 205.65 163.85 207.95 157.05 216.95 C 157.15 216.95 156.25 204.95 164.65 194.75 Z"/>
  <path fill="#E30613" stroke="#E30613" stroke-width="1.0751" stroke-linecap="round" stroke-linejoin="round" stroke-miterlimit="10" d="M 153.75 190.45 L 230.75 248.55 C 230.75 248.55 258.45 264.85 258.45 231.25 C 258.45 197.65 258.45 196.45 258.45 196.45 L 191.15 151.85 C 191.15 151.85 185.95 147.55 181.25 153.55 C 176.55 159.55 153.75 190.45 153.75 190.45 Z"/>
  <path fill="#DCE169" stroke="#DCE169" stroke-miterlimit="10" d="M 245.05 240.15 C 245.05 240.15 247.45 240.55 246.85 243.65 C 246.25 246.75 245.75 247.65 243.45 247.25 C 241.15 246.85 241.35 244.65 241.85 242.35 C 242.35 240.05 243.55 239.85 245.05 240.15 Z"/>
  <path fill="#DCE169" stroke="#DCE169" stroke-miterlimit="10" d="M 239.15 224.75 C 239.15 224.75 240.15 222.35 241.55 223.25 C 242.95 224.15 242.85 224.75 241.55 225.65 C 240.25 226.65 238.55 227.25 239.15 224.75 Z"/>
  <circle stroke="#000000" stroke-width="0.9855" stroke-linecap="round" stroke-linejoin="round" stroke-miterlimit="10" cx="194.65" cy="193.25" r="2.3"/>
  <circle stroke="#000000" stroke-width="0.9855" stroke-linecap="round" stroke-linejoin="round" stroke-miterlimit="10" cx="196.15" cy="203.75" r="2.3"/>
  <circle stroke="#000000" stroke-width="0.9855" stroke-linecap="round" stroke-linejoin="round" stroke-miterlimit="10" cx="186.15" cy="202.85" r="2.3"/>
  <path stroke="#000000" stroke-width="0.8412" stroke-linecap="round" stroke-linejoin="round" stroke-miterlimit="10" d="M 173.65 163.65 L 199.95 182.45 L 211.75 165.65 L 191.05 151.95 C 191.05 151.95 185.45 147.95 181.15 153.65 C 176.85 159.25 173.65 163.65 173.65 163.65 Z"/>
  <g transform="matrix(1, 0, 0, 1, -502.250031, -158.150009)">
    <ellipse transform="matrix(0.5651 -0.825 0.825 0.5651 43.1298 704.5678)" fill="#FFFFFF" cx="689.9" cy="311.4" rx="1.9" ry="1.9"/>
    <ellipse transform="matrix(0.5651 -0.825 0.825 0.5651 42.0491 713.8901)" fill="#FFFFFF" cx="698.2" cy="317.1" rx="1.9" ry="1.9"/>
    <rect x="689" y="312.3" transform="matrix(0.825 0.5651 -0.5651 0.825 298.9922 -337.1955)" fill="#FFFFFF" width="10.1" height="3.9"/>
  </g>
  <polyline fill="#E30613" stroke="#E30613" stroke-width="1.006" stroke-linecap="round" stroke-linejoin="round" stroke-miterlimit="10" points="273.35 281.85 273.35 318.85 289.55 318.85 289.55 281.85"/>
  <circle fill="#E30613" stroke="#E30613" stroke-width="1.006" stroke-linecap="round" stroke-linejoin="round" stroke-miterlimit="10" cx="783.7" cy="440" r="8.1" transform="matrix(1, 0, 0, 0.999996, -502.250031, -158.148361)"/>
  <path fill="#DADC97" stroke="#DADC97" stroke-miterlimit="10" d="M 289.65 281.75 L 289.45 295.95 C 289.45 295.95 272.25 290.35 282.05 273.25 C 282.15 273.25 289.55 274.75 289.65 281.75 Z"/>
  <circle fill="#E30613" stroke="#E30613" stroke-width="1.006" stroke-linecap="round" stroke-linejoin="round" stroke-miterlimit="10" cx="764.5" cy="480.2" r="5.4" transform="matrix(1, 0, 0, 0.999994, -502.250031, -158.147308)"/>
  <circle fill="#E30613" stroke="#E30613" stroke-width="1.006" stroke-linecap="round" stroke-linejoin="round" stroke-miterlimit="10" cx="783.7" cy="477.4" r="8.1" transform="matrix(1, 0, 0, 1.000004, -502.250031, -158.151794)"/>
  <polygon fill="#E30613" stroke="#E30613" stroke-width="1.006" stroke-linecap="round" stroke-linejoin="round" stroke-miterlimit="10" points="262.25 316.65 262.25 327.35 281.45 327.35 281.45 311.15"/>
  <polyline fill="#E30613" stroke="#E30613" stroke-width="1.006" stroke-linecap="round" stroke-linejoin="round" stroke-miterlimit="10" points="359.25 281.85 359.25 318.85 375.45 318.85 375.45 281.85"/>
  <circle fill="#E30613" stroke="#E30613" stroke-width="1.006" stroke-linecap="round" stroke-linejoin="round" stroke-miterlimit="10" cx="869.6" cy="440" r="8.1" transform="matrix(1, 0, 0, 0.999996, -502.250031, -158.148361)"/>
  <path fill="#DCE169" stroke="#DCE169" stroke-miterlimit="10" d="M 359.25 289.45 C 359.25 289.45 365.75 290.05 365.75 297.85 C 365.75 305.65 359.25 308.95 359.25 308.95 L 359.25 289.45 Z"/>
  <circle fill="#E30613" stroke="#E30613" stroke-width="1.006" stroke-linecap="round" stroke-linejoin="round" stroke-miterlimit="10" cx="850.5" cy="479.8" r="5.4" transform="matrix(1, 0, 0, 0.999994, -502.250031, -158.147308)"/>
  <circle fill="#E30613" stroke="#E30613" stroke-width="1.006" stroke-linecap="round" stroke-linejoin="round" stroke-miterlimit="10" cx="869.7" cy="477" r="8.1" transform="matrix(1, 0, 0, 0.999996, -502.250031, -158.148224)"/>
  <polygon fill="#E30613" stroke="#E30613" stroke-width="1.006" stroke-linecap="round" stroke-linejoin="round" stroke-miterlimit="10" points="348.25 316.25 348.25 327.05 367.45 327.05 367.45 310.75"/>
  <path fill="#DCE169" stroke="#DCE169" stroke-miterlimit="10" d="M 343.25 323.85 C 343.25 323.85 346.95 314.75 355.25 318.95 C 355.25 318.95 360.15 322.05 359.25 327.05 L 348.15 327.05 C 348.25 327.05 344.85 326.85 343.25 323.85 Z"/>
  <rect x="269.95" y="196.45" fill="#E30613" stroke="#E30613" stroke-width="1.0083" stroke-linecap="round" stroke-linejoin="round" stroke-miterlimit="10" width="105.5" height="85.4"/>
  <circle fill="#E30613" stroke="#E30613" stroke-width="1.006" stroke-linecap="round" stroke-linejoin="round" stroke-miterlimit="10" cx="783.6" cy="440" r="8.1" transform="matrix(1, 0, 0, 0.999996, -502.250031, -158.148361)"/>
  <circle fill="#E30613" stroke="#E30613" stroke-width="1.0083" stroke-linecap="round" stroke-linejoin="round" stroke-miterlimit="10" cx="869.6" cy="440" r="8.1" transform="matrix(1, 0, 0, 0.999996, -502.250031, -158.148361)"/>
  <circle fill="#E30613" stroke="#E30613" stroke-width="1.0083" stroke-linecap="round" stroke-linejoin="round" stroke-miterlimit="10" cx="371.35" cy="196.45" r="4.1"/>
  <path fill="#DCE169" stroke="#DCE169" stroke-miterlimit="10" d="M 309.25 196.45 C 309.25 196.45 293.25 220.65 313.05 235.45 C 332.85 250.25 346.25 231.65 348.05 224.25 C 349.85 216.85 349.85 203.25 344.05 196.45 L 309.25 196.45 Z"/>
  <path fill="#DCE169" stroke="#DCE169" stroke-miterlimit="10" d="M 375.45 232.95 L 375.45 276.75 C 375.45 276.75 356.65 275.75 355.95 261.55 C 355.25 247.35 364.45 234.45 375.45 232.95 Z"/>
  <path fill="#DCE169" stroke="#DCE169" stroke-miterlimit="10" d="M 289.45 281.85 L 308.45 281.85 C 308.45 281.85 307.45 266.95 294.45 266.45 C 281.45 265.95 274.25 282.25 281.35 289.95 C 281.35 289.95 283.95 291.15 287.05 288.45 C 289.25 285.75 289.25 284.55 289.45 281.85 Z"/>
  <path fill="#DCE169" stroke="#DCE169" stroke-miterlimit="10" d="M 359.25 222.95 C 359.25 222.95 363.75 221.15 364.05 225.75 C 364.35 230.35 359.85 233.55 357.55 230.95 C 355.25 228.35 356.25 225.45 359.25 222.95 Z"/>
  <path fill="#DCE169" stroke="#DCE169" stroke-miterlimit="10" d="M 370.25 211.45 C 370.25 211.45 369.15 213.45 371.45 214.45 C 373.75 215.45 374.75 212.95 373.55 209.45 C 372.35 205.95 370.25 211.45 370.25 211.45 Z"/>
  <path fill="#DCE169" stroke="#DCE169" stroke-miterlimit="10" d="M 359.25 205.95 C 359.25 205.95 357.55 207.35 360.15 208.25 C 362.75 209.25 361.95 204.25 359.25 205.95 Z"/>
  <path fill="#DCE169" stroke="#DCE169" stroke-miterlimit="10" d="M 285.25 211.55 C 285.25 211.55 279.25 214.55 281.35 221.05 C 283.45 227.55 287.45 225.85 289.45 224.55 C 291.45 223.25 294.45 221.25 292.85 214.75 C 291.25 208.25 285.25 211.55 285.25 211.55 Z"/>
  <path fill="#DCE169" stroke="#DCE169" stroke-miterlimit="10" d="M 291.75 243.25 C 291.75 243.25 291.35 245.75 293.85 246.45 C 296.25 247.25 297.55 245.95 297.75 243.25 C 297.95 240.55 295.85 238.85 293.85 239.15 C 291.75 239.45 291.75 243.25 291.75 243.25 Z"/>
  <path fill="#DCE169" stroke="#DCE169" stroke-miterlimit="10" d="M 313.25 256.25 C 313.25 256.25 311.25 263.05 318.25 263.25 C 325.25 263.45 324.75 256.05 322.75 253.25 C 320.75 250.45 315.75 249.45 313.25 256.25 Z"/>
  <path fill="#DCE169" stroke="#DCE169" stroke-miterlimit="10" d="M 331.75 268.95 C 331.75 268.95 334.25 269.45 335.95 264.75 C 337.65 260.05 334.45 260.55 331.75 260.75 C 329.05 260.95 327.95 267.75 331.75 268.95 Z"/>
  <path fill="#DCE169" stroke="#DCE169" stroke-miterlimit="10" d="M 342.75 270.25 C 342.75 270.25 339.55 274.25 344.25 276.75 C 348.95 279.25 350.45 276.75 350.45 273.55 C 350.45 270.35 348.75 263.25 342.75 270.25 Z"/>
  <path fill="#DCE169" stroke="#DCE169" stroke-miterlimit="10" d="M 346.05 252.95 C 346.05 252.95 345.75 255.95 348.95 255.95 C 352.15 255.95 351.95 253.45 350.45 251.05 C 348.95 248.75 346.35 249.45 346.05 252.95 Z"/>
  <rect x="367.45" y="154.95" fill="#E30613" stroke="#E30613" stroke-width="1.0751" stroke-linecap="round" stroke-linejoin="round" stroke-miterlimit="10" width="8" height="41.6"/>
  <circle fill="#DADC97" stroke="#DADC97" stroke-width="0.9855" stroke-linecap="round" stroke-linejoin="round" stroke-miterlimit="10" cx="371.45" cy="154.95" r="4"/>
  <polygon fill="#DCE169" stroke="#DCE169" stroke-width="1.1411" stroke-miterlimit="10" points="375.45 168.55 367.45 175.25 367.45 154.95 375.45 154.95"/>
  <circle fill="#E30613" stroke="#E30613" stroke-width="1.0083" stroke-linecap="round" stroke-linejoin="round" stroke-miterlimit="10" cx="371.35" cy="196.45" r="4.1"/>
  <path fill="#DCE169" stroke="#DCE169" stroke-miterlimit="10" d="M 367.35 193.95 C 367.35 193.95 371.95 194.15 371.95 189.75 C 371.95 185.25 367.35 186.25 367.35 186.25 L 367.35 193.95 Z"/>
  <circle fill="#DADC97" stroke="#DADC97" stroke-width="0.9855" stroke-miterlimit="10" cx="371.45" cy="154.95" r="4.1"/>
  <polygon fill="#DCE169" stroke="#DCE169" stroke-width="0.9855" stroke-linecap="round" stroke-linejoin="round" stroke-miterlimit="10" points="371.45 159.05 343.25 150.95 371.45 150.95"/>
  <line fill="none" stroke="#B2B2B2" stroke-width="4.252" stroke-linecap="round" stroke-linejoin="round" stroke-miterlimit="10" x1="166.45" y1="243.15" x2="131.05" y2="221.95"/>
  <line fill="none" stroke="#B2B2B2" stroke-width="4.252" stroke-linecap="round" stroke-linejoin="round" stroke-miterlimit="10" x1="166.45" y1="264.45" x2="131.05" y2="285.75"/>
  <line fill="none" stroke="#B2B2B2" stroke-width="4.252" stroke-linecap="round" stroke-linejoin="round" stroke-miterlimit="10" x1="122.45" y1="254.25" x2="162.45" y2="254.25"/>
  <g transform="matrix(1, 0, 0, 1, -502.250031, -158.150009)">
    <ellipse transform="matrix(0.5016 -0.8651 0.8651 0.5016 69.4547 811.7738)" stroke="#000000" stroke-width="0.8412" stroke-linecap="round" stroke-linejoin="round" stroke-miterlimit="10" cx="739.2" cy="345.6" rx="2" ry="2"/>
    <ellipse transform="matrix(0.5016 -0.8651 0.8651 0.5016 76.1022 811.7917)" stroke="#000000" stroke-width="0.8412" stroke-linecap="round" stroke-linejoin="round" stroke-miterlimit="10" cx="742.5" cy="339.9" rx="2" ry="2"/>
    <rect x="738.9" y="339.4" transform="matrix(0.8651 0.5016 -0.5016 0.8651 271.821 -325.3597)" stroke="#000000" stroke-width="0.8412" stroke-linecap="round" stroke-linejoin="round" stroke-miterlimit="10" width="4" height="6.7"/>
    <ellipse transform="matrix(0.5016 -0.8651 0.8651 0.5016 76.1022 811.7917)" fill="#FFFFFF" cx="742.5" cy="339.9" rx="1.5" ry="1.5"/>
  </g>
  <g transform="matrix(1, 0, 0, 1, -502.250031, -158.150009)">
    <ellipse transform="matrix(0.5016 -0.8651 0.8651 0.5016 69.4302 820.8916)" stroke="#000000" stroke-width="0.8412" stroke-linecap="round" stroke-linejoin="round" stroke-miterlimit="10" cx="747.1" cy="350.2" rx="2" ry="2"/>
    <ellipse transform="matrix(0.5016 -0.8651 0.8651 0.5016 76.0777 820.9095)" stroke="#000000" stroke-width="0.8412" stroke-linecap="round" stroke-linejoin="round" stroke-miterlimit="10" cx="750.4" cy="344.4" rx="2" ry="2"/>
    <rect x="746.8" y="344" transform="matrix(0.8651 0.5016 -0.5016 0.8651 275.1837 -328.7044)" stroke="#000000" stroke-width="0.8412" stroke-linecap="round" stroke-linejoin="round" stroke-miterlimit="10" width="4" height="6.7"/>
    <ellipse transform="matrix(0.5016 -0.8651 0.8651 0.5016 76.0777 820.9095)" fill="#FFFFFF" cx="750.4" cy="344.4" rx="1.5" ry="1.5"/>
  </g>
  <polygon fill="#931004" stroke="#931004" stroke-width="2.8346" stroke-miterlimit="10" points="253.25 288.35 288.65 288.35 288.65 195.25 253.25 189.05"/>
  <polygon fill="#DCE169" stroke="#DCE169" stroke-width="0.9855" stroke-linecap="round" stroke-linejoin="round" stroke-miterlimit="10" points="252.75 198.45 252.75 146.55 295.75 146.55 263.95 158.75"/>
  <polygon fill="#770F00" points="260.35 289.45 262.25 200.55 264.05 289.25"/>
  <polygon fill="#770F00" points="255.25 289.45 257.15 200.55 259.05 289.25"/>
  <polygon fill="#770F00" points="265.75 289.45 267.55 200.55 269.45 289.25"/>
  <polygon fill="#770F00" points="271.45 289.45 273.35 200.55 275.15 289.25"/>
  <polygon fill="#770F00" points="277.25 289.45 279.15 200.55 281.05 289.25"/>
  <polygon fill="#770F00" points="283.35 289.45 285.25 200.55 287.15 289.25"/>
</svg>