<?xml version="1.0" encoding="utf-8"?>
<svg width="500px" height="500px" viewBox="116 151 268 198" xmlns="http://www.w3.org/2000/svg">
  <g>
    <g id="bottom_jaw" transform="matrix(1, 0, 0, 1, 94.049965, 102.899994)">
      <path fill="#B2B2B2" d="M90.1,205.2l37.5-38.1l-7.5-4.4l2.3,7.4l-7.3-2.9l1.8,8.6c0,0-6.8-1.5-8.1-6c0,0-0.1,8.7,2.8,11.7&#10;&#9;&#9;c0,0-7.6-2.7-8.6-7c0,0-1.8,8.4,2.3,13.3c0,0-4.3-1.2-7.2-6.7c0,0-1.8,7.1,2.5,11.4c0,0-4.2,0.3-7.7-3.5c0,0-2.5,6,0.8,10.8&#10;&#9;&#9;c0,0-8.2-2.1-13.3-8.9C80.6,190.8,84.3,201.7,90.1,205.2z"/>
      <path fill="#E30613" stroke="#E30613" stroke-width="1.0751" stroke-linecap="round" stroke-linejoin="round" stroke-miterlimit="10" d="&#10;&#9;&#9;M88.2,205l54.4-54.6c0,0,22.1-23.2,22.9,11.9l-54.1,53.5c0,0-6.1,6.6-13,1S88.2,205,88.2,205z"/>
      <path fill="#DCE169" stroke="#DCE169" stroke-miterlimit="10" d="M144.7,170.1c0,0,1,1.5,2.6,0s0.1-2-1.3-2&#10;&#9;&#9;S143.5,169.4,144.7,170.1z"/>
    </g>
    <g id="top_jaw" transform="matrix(1, 0, 0, 1, 94.049965, 102.899994)">
      <path fill="#B2B2B2" d="M71.6,104.9l61.5,48.2c0,0-15.2-0.8-20,4.3c0,0,2.7-8.2,6.3-12.3l-12.7,9.4c0,0,3.3-11.7,6.2-14.3&#10;&#9;&#9;c0,0-8.3,5.7-13.7,10.5c0,0,1.5-9.8,6.1-15.8c0,0-5.6,3.9-11.6,9c0,0,0.7-10.8,3.3-15l-11,8.5l5.1-13.8L77.8,132l2.8-16.3&#10;&#9;&#9;c0,0-9.7,2.3-16.5,11.3C64.1,127,63.3,115,71.6,104.9z"/>
      <path fill="#E30613" stroke="#E30613" stroke-width="1.0751" stroke-linecap="round" stroke-linejoin="round" stroke-miterlimit="10" d="&#10;&#9;&#9;M60.8,100.5l77,58.1c0,0,27.7,16.3,27.7-17.3s0-34.8,0-34.8L98.1,62c0,0-5.2-4.3-9.9,1.7S60.8,100.5,60.8,100.5z"/>
      <path fill="#DCE169" stroke="#DCE169" stroke-miterlimit="10" d="M152,150.2c0,0,2.4,0.4,1.8,3.5s-1.1,4-3.4,3.6s-2.1-2.6-1.6-4.9&#10;&#9;&#9;S150.5,150,152,150.2z"/>
      <path fill="#DCE169" stroke="#DCE169" stroke-miterlimit="10" d="M146.1,134.9c0,0,1-2.4,2.4-1.5c1.4,0.9,1.3,1.5,0,2.4&#10;&#9;&#9;C147.2,136.7,145.5,137.4,146.1,134.9z"/>
    </g>
    <g id="face" transform="matrix(1, 0, 0, 1, 94.049965, 102.899994)">
      <circle stroke="#000000" stroke-width="0.9855" stroke-linecap="round" stroke-linejoin="round" stroke-miterlimit="10" cx="101.6" cy="103.4" r="2.3"/>
      <circle stroke="#000000" stroke-width="0.9855" stroke-linecap="round" stroke-linejoin="round" stroke-miterlimit="10" cx="103.1" cy="113.9" r="2.3"/>
      <circle stroke="#000000" stroke-width="0.9855" stroke-linecap="round" stroke-linejoin="round" stroke-miterlimit="10" cx="93.1" cy="113" r="2.3"/>
      <path stroke="#000000" stroke-width="0.8412" stroke-linecap="round" stroke-linejoin="round" stroke-miterlimit="10" d="&#10;&#9;&#9;M80.6,73.7l26.3,18.8l11.8-16.8L98.1,62c0,0-5.6-4-9.9,1.7S80.6,73.7,80.6,73.7z"/>
      <g>
        <ellipse transform="matrix(0.5016 -0.8651 0.8651 0.5016 -12.6806 173.1534)" stroke="#000000" stroke-width="0.8412" stroke-linecap="round" stroke-linejoin="round" stroke-miterlimit="10" cx="143.9" cy="97.6" rx="2" ry="2"/>
        <ellipse transform="matrix(0.5016 -0.8651 0.8651 0.5016 -6.0332 173.1712)" stroke="#000000" stroke-width="0.8412" stroke-linecap="round" stroke-linejoin="round" stroke-miterlimit="10" cx="147.3" cy="91.8" rx="2" ry="2"/>
        <rect x="143.6" y="91.4" transform="matrix(0.8651 0.5016 -0.5016 0.8651 67.1343 -60.251)" stroke="#000000" stroke-width="0.8412" stroke-linecap="round" stroke-linejoin="round" stroke-miterlimit="10" width="4" height="6.7"/>
        <ellipse transform="matrix(0.5016 -0.8651 0.8651 0.5016 -6.0332 173.1712)" fill="#FFFFFF" cx="147.3" cy="91.8" rx="1.5" ry="1.5"/>
      </g>
      <g>
        <ellipse transform="matrix(0.5016 -0.8651 0.8651 0.5016 -12.7052 182.2712)" stroke="#000000" stroke-width="0.8412" stroke-linecap="round" stroke-linejoin="round" stroke-miterlimit="10" cx="151.8" cy="102.2" rx="2" ry="2"/>
        <ellipse transform="matrix(0.5016 -0.8651 0.8651 0.5016 -6.0577 182.289)" stroke="#000000" stroke-width="0.8412" stroke-linecap="round" stroke-linejoin="round" stroke-miterlimit="10" cx="155.2" cy="96.4" rx="2" ry="2"/>
        <rect x="151.5" y="96" transform="matrix(0.8651 0.5016 -0.5016 0.8651 70.497 -63.5957)" stroke="#000000" stroke-width="0.8412" stroke-linecap="round" stroke-linejoin="round" stroke-miterlimit="10" width="4" height="6.7"/>
        <ellipse transform="matrix(0.5016 -0.8651 0.8651 0.5016 -6.0577 182.289)" fill="#FFFFFF" cx="155.2" cy="96.4" rx="1.5" ry="1.5"/>
      </g>
      <g>
        <ellipse transform="matrix(0.5651 -0.825 0.825 0.5651 -11.128 105.577)" fill="#FFFFFF" cx="94.6" cy="63.3" rx="1.9" ry="1.9"/>
        <ellipse transform="matrix(0.5651 -0.825 0.825 0.5651 -12.2087 114.8993)" fill="#FFFFFF" cx="102.9" cy="69" rx="1.9" ry="1.9"/>
        <rect x="93.7" y="64.2" transform="matrix(0.825 0.5651 -0.5651 0.825 54.6759 -44.2092)" fill="#FFFFFF" width="10.1" height="3.9"/>
      </g>
    </g>
    <g id="front_leg" transform="matrix(1, 0, 0, 1, 94.049965, 102.899994)">
      <polyline fill="#E30613" stroke="#E30613" stroke-width="1.006" stroke-linecap="round" stroke-linejoin="round" stroke-miterlimit="10" points="&#10;&#9;&#9;180.3,192 180.3,229 196.5,229 196.5,192 &#9;"/>
      <circle fill="#E30613" stroke="#E30613" stroke-width="1.006" stroke-linecap="round" stroke-linejoin="round" stroke-miterlimit="10" cx="188.4" cy="192" r="8.1"/>
      <path fill="#DADC97" stroke="#DADC97" stroke-miterlimit="10" d="M196.6,191.9l-0.2,14.2c0,0-17.2-5.6-7.4-22.7&#10;&#9;&#9;C189.1,183.4,196.5,184.9,196.6,191.9z"/>
    </g>
    <g id="front_foot" transform="matrix(1, 0, 0, 1, 94.049965, 102.899994)">
      <circle fill="#E30613" stroke="#E30613" stroke-width="1.006" stroke-linecap="round" stroke-linejoin="round" stroke-miterlimit="10" cx="169.2" cy="232.1" r="5.4"/>
      <circle fill="#E30613" stroke="#E30613" stroke-width="1.006" stroke-linecap="round" stroke-linejoin="round" stroke-miterlimit="10" cx="188.4" cy="229.4" r="8.1"/>
      <polygon fill="#E30613" stroke="#E30613" stroke-width="1.006" stroke-linecap="round" stroke-linejoin="round" stroke-miterlimit="10" points="&#10;&#9;&#9;169.2,226.7 169.2,237.5 188.4,237.5 188.4,221.3 &#9;"/>
    </g>
    <g id="back_leg" transform="matrix(1, 0, 0, 1, 94.049965, 102.899994)">
      <polyline fill="#E30613" stroke="#E30613" stroke-width="1.006" stroke-linecap="round" stroke-linejoin="round" stroke-miterlimit="10" points="&#10;&#9;&#9;266.2,192 266.2,229 282.4,229 282.4,192 &#9;"/>
      <circle fill="#E30613" stroke="#E30613" stroke-width="1.006" stroke-linecap="round" stroke-linejoin="round" stroke-miterlimit="10" cx="274.3" cy="192" r="8.1"/>
      <path fill="#DCE169" stroke="#DCE169" stroke-miterlimit="10" d="M266.2,199.6c0,0,6.5,0.6,6.5,8.4c0,7.8-6.5,11.1-6.5,11.1V199.6z&#10;&#9;&#9;"/>
    </g>
    <g id="back_foot" transform="matrix(1, 0, 0, 1, 94.049965, 102.899994)">
      <circle fill="#E30613" stroke="#E30613" stroke-width="1.006" stroke-linecap="round" stroke-linejoin="round" stroke-miterlimit="10" cx="255.2" cy="231.7" r="5.4"/>
      <circle fill="#E30613" stroke="#E30613" stroke-width="1.006" stroke-linecap="round" stroke-linejoin="round" stroke-miterlimit="10" cx="274.4" cy="229" r="8.1"/>
      <polygon fill="#E30613" stroke="#E30613" stroke-width="1.006" stroke-linecap="round" stroke-linejoin="round" stroke-miterlimit="10" points="&#10;&#9;&#9;255.2,226.4 255.2,237.1 274.4,237.1 274.4,220.9 &#9;"/>
      <path fill="#DCE169" stroke="#DCE169" stroke-miterlimit="10" d="M250.3,233.9c0,0,3.7-9.1,12-4.9c0,0,4.9,3.1,4,8.1h-11.1&#10;&#9;&#9;C255.2,237.1,251.9,237,250.3,233.9z"/>
    </g>
    <g id="body" transform="matrix(1, 0, 0, 1, 94.049965, 102.899994)">
      <rect x="176.9" y="106.6" fill="#E30613" stroke="#E30613" stroke-width="1.0083" stroke-linecap="round" stroke-linejoin="round" stroke-miterlimit="10" width="105.5" height="85.4"/>
      <circle fill="#E30613" stroke="#E30613" stroke-width="1.006" stroke-linecap="round" stroke-linejoin="round" stroke-miterlimit="10" cx="188.3" cy="192" r="8.1"/>
      <circle fill="#E30613" stroke="#E30613" stroke-width="1.0083" stroke-linecap="round" stroke-linejoin="round" stroke-miterlimit="10" cx="274.3" cy="192" r="8.1"/>
      <circle fill="#E30613" stroke="#E30613" stroke-width="1.0083" stroke-linecap="round" stroke-linejoin="round" stroke-miterlimit="10" cx="278.4" cy="106.6" r="4.1"/>
      <path fill="#DCE169" stroke="#DCE169" stroke-miterlimit="10" d="M216.2,106.6c0,0-16,24.2,3.8,39s33.2-3.8,35-11.2s1.8-21-4-27.8&#10;&#9;&#9;H216.2z"/>
      <path fill="#DCE169" stroke="#DCE169" stroke-miterlimit="10" d="M282.4,143.1v43.8c0,0-18.8-1-19.5-15.2S271.4,144.6,282.4,143.1z&#10;&#9;&#9;"/>
      <path fill="#DCE169" stroke="#DCE169" stroke-miterlimit="10" d="M196.4,192h19c0,0-1-14.9-14-15.4s-20.2,15.8-13.1,23.5&#10;&#9;&#9;c0,0,2.6,1.2,5.7-1.5C196.2,195.9,196.3,194.7,196.4,192z"/>
      <path fill="#DCE169" stroke="#DCE169" stroke-miterlimit="10" d="M266.2,133.1c0,0,4.5-1.8,4.8,2.8s-4.2,7.8-6.5,5.2&#10;&#9;&#9;S263.2,135.6,266.2,133.1z"/>
      <path fill="#DCE169" stroke="#DCE169" stroke-miterlimit="10" d="M277.2,121.6c0,0-1.1,2,1.2,3s3.3-1.5,2.1-5&#10;&#9;&#9;S277.2,121.6,277.2,121.6z"/>
      <path fill="#DCE169" stroke="#DCE169" stroke-miterlimit="10" d="M266.2,116.1c0,0-1.7,1.4,0.9,2.3&#10;&#9;&#9;C269.7,119.4,268.9,114.4,266.2,116.1z"/>
      <path fill="#DCE169" stroke="#DCE169" stroke-miterlimit="10" d="M192.2,121.6c0,0-6,3-3.9,9.5s6.1,4.8,8.1,3.5s5-3.3,3.4-9.8&#10;&#9;&#9;C198.2,118.4,192.2,121.6,192.2,121.6z"/>
      <path fill="#DCE169" stroke="#DCE169" stroke-miterlimit="10" d="M198.7,153.4c0,0-0.4,2.5,2.1,3.2c2.4,0.8,3.7-0.5,3.9-3.2&#10;&#9;&#9;s-1.9-4.4-3.9-4.1C198.7,149.6,198.7,153.4,198.7,153.4z"/>
      <path fill="#DCE169" stroke="#DCE169" stroke-miterlimit="10" d="M220.2,166.4c0,0-2,6.8,5,7s6.5-7.2,4.5-10&#10;&#9;&#9;S222.7,159.6,220.2,166.4z"/>
      <path fill="#DCE169" stroke="#DCE169" stroke-miterlimit="10" d="M238.7,179.1c0,0,2.5,0.5,4.2-4.2s-1.5-4.2-4.2-4&#10;&#9;&#9;S234.9,177.9,238.7,179.1z"/>
      <path fill="#DCE169" stroke="#DCE169" stroke-miterlimit="10" d="M249.7,180.4c0,0-3.2,4,1.5,6.5s6.2,0,6.2-3.2&#10;&#9;&#9;S255.7,173.4,249.7,180.4z"/>
      <path fill="#DCE169" stroke="#DCE169" stroke-miterlimit="10" d="M253,163.1c0,0-0.3,3,2.9,3c3.2,0,3-2.5,1.5-4.9&#10;&#9;&#9;C255.9,158.9,253.3,159.6,253,163.1z"/>
    </g>
    <g id="collar" transform="matrix(1, 0, 0, 1, 94.049965, 102.899994)">
      <rect x="161.4" y="100.4" fill="#1D1D1B" stroke="#1D1D1B" stroke-width="1.006" stroke-linecap="round" stroke-linejoin="round" stroke-miterlimit="10" width="18.8" height="95.5"/>
      <polygon fill="#B2B2B2" stroke="#B2B2B2" stroke-width="0.9855" stroke-linecap="round" stroke-linejoin="round" stroke-miterlimit="10" points="&#10;&#9;&#9;166.1,100.4 171,86.6 175.5,100.4 &#9;"/>
      <polygon fill="#B2B2B2" stroke="#B2B2B2" stroke-width="0.9855" stroke-linecap="round" stroke-linejoin="round" stroke-miterlimit="10" points="&#10;&#9;&#9;166.1,195.9 171,209.6 175.5,195.9 &#9;"/>
      <path fill="#B2B2B2" stroke="#B2B2B2" stroke-width="0.9855" stroke-linecap="round" stroke-linejoin="round" stroke-miterlimit="10" d="&#10;&#9;&#9;M166.1,114.9l4.9-8.8l4.4,8.8c0,0-0.3,2.5-4.7,2.5C166.5,117.3,166.1,114.9,166.1,114.9z"/>
      <path fill="#B2B2B2" stroke="#B2B2B2" stroke-width="0.9855" stroke-linecap="round" stroke-linejoin="round" stroke-miterlimit="10" d="&#10;&#9;&#9;M166.1,182l4.9,8.8l4.4-8.8c0,0-0.3-2.5-4.7-2.5C166.5,179.5,166.1,182,166.1,182z"/>
      <circle fill="#B2B2B2" stroke="#B2B2B2" stroke-width="0.9855" stroke-linecap="round" stroke-linejoin="round" stroke-miterlimit="10" cx="170.9" cy="148.4" r="4.6"/>
      <circle fill="#B2B2B2" stroke="#B2B2B2" stroke-width="0.9855" stroke-linecap="round" stroke-linejoin="round" stroke-miterlimit="10" cx="170.9" cy="130.4" r="4.6"/>
      <circle fill="#B2B2B2" stroke="#B2B2B2" stroke-width="0.9855" stroke-linecap="round" stroke-linejoin="round" stroke-miterlimit="10" cx="170.8" cy="167.1" r="4.6"/>
    </g>
    <g id="ear" transform="matrix(1, 0, 0, 1, 94.049965, 102.899994)">
      <polygon fill="#DCE169" stroke="#DCE169" stroke-width="0.9855" stroke-linecap="round" stroke-linejoin="round" stroke-miterlimit="10" points="&#10;&#9;&#9;159.8,108.6 159.8,56.7 202.8,56.7 170.9,68.9 &#9;"/>
    </g>
    <g id="bottom_tail" transform="matrix(1, 0, 0, 1, 94.049965, 102.899994)">
      <rect x="274.4" y="65" fill="#E30613" stroke="#E30613" stroke-width="1.0751" stroke-linecap="round" stroke-linejoin="round" stroke-miterlimit="10" width="8" height="41.6"/>
      <circle fill="#DADC97" stroke="#DADC97" stroke-width="0.9855" stroke-linecap="round" stroke-linejoin="round" stroke-miterlimit="10" cx="278.4" cy="65" r="4"/>
      <polygon fill="#DCE169" stroke="#DCE169" stroke-width="1.1411" stroke-miterlimit="10" points="282.4,78.7 274.4,85.4 274.4,65 &#10;&#9;&#9;282.4,65 &#9;"/>
      <circle fill="#E30613" stroke="#E30613" stroke-width="1.0083" stroke-linecap="round" stroke-linejoin="round" stroke-miterlimit="10" cx="278.4" cy="106.6" r="4.1"/>
      <path fill="#DCE169" stroke="#DCE169" stroke-miterlimit="10" d="M274.3,104.1c0,0,4.6,0.2,4.6-4.2c0-4.5-4.6-3.5-4.6-3.5V104.1z"/>
    </g>
    <g id="top_tail" transform="matrix(1, 0, 0, 1, 94.049965, 102.899994)">
      <circle fill="#DADC97" stroke="#DADC97" stroke-width="0.9855" stroke-miterlimit="10" cx="278.4" cy="65.1" r="4.1"/>
      <polygon fill="#DCE169" stroke="#DCE169" stroke-width="0.9855" stroke-linecap="round" stroke-linejoin="round" stroke-miterlimit="10" points="&#10;&#9;&#9;278.4,69.2 250.2,61 278.4,61 &#9;"/>
    </g>
    <g id="bark" transform="matrix(1, 0, 0, 1, 94.049965, 102.899994)">
      <line fill="none" stroke="#B2B2B2" stroke-width="4.252" stroke-linecap="round" stroke-linejoin="round" stroke-miterlimit="10" x1="73.4" y1="153.3" x2="38" y2="132"/>
      <line fill="none" stroke="#B2B2B2" stroke-width="4.252" stroke-linecap="round" stroke-linejoin="round" stroke-miterlimit="10" x1="73.4" y1="174.6" x2="38" y2="195.8"/>
      <line fill="none" stroke="#B2B2B2" stroke-width="4.252" stroke-linecap="round" stroke-linejoin="round" stroke-miterlimit="10" x1="29.4" y1="164.4" x2="69.4" y2="164.4"/>
    </g>
  </g>
</svg>