<?xml version="1.0" encoding="utf-8"?>
<svg viewBox="10 88 300 220" xmlns="http://www.w3.org/2000/svg">
  <path stroke="#FFFFFF" stroke-miterlimit="10" d="M 82.18 261.896 L 125.253 218.133 L 116.639 213.079 L 119.28 221.579 L 110.895 218.248 L 112.963 228.126 C 112.963 228.126 105.152 226.403 103.659 221.234 C 103.659 221.234 103.544 231.227 106.875 234.673 C 106.875 234.673 98.145 231.572 96.997 226.633 C 96.997 226.633 94.929 236.281 99.639 241.91 C 99.639 241.91 94.699 240.531 91.369 234.214 C 91.369 234.214 89.3 242.369 94.24 247.308 C 94.24 247.308 89.416 247.653 85.396 243.289 C 85.396 243.289 82.524 250.18 86.315 255.693 C 86.315 255.693 76.896 253.281 71.038 245.471 C 71.268 245.356 75.517 257.875 82.18 261.896 Z" style="fill: rgb(51, 51, 51);"/>
  <path fill="#FFFFFF" stroke="#FFFFFF" stroke-width="1.0751" stroke-linecap="round" stroke-linejoin="round" stroke-miterlimit="10" d="M 79.997 261.666 L 142.482 198.95 C 142.482 198.95 167.868 172.302 168.787 212.62 L 106.645 274.072 C 106.645 274.072 99.639 281.652 91.714 275.22 C 83.787 268.787 79.997 261.666 79.997 261.666 Z"/>
  <path fill="#FFFFFF" stroke="#FFFFFF" stroke-miterlimit="10" d="M 144.895 221.579 C 144.895 221.579 146.044 223.302 147.881 221.579 C 149.72 219.856 147.997 219.281 146.388 219.281 C 144.78 219.281 143.632 220.89 144.895 221.579 Z"/>
  <path stroke="#FFFFFF" stroke-miterlimit="10" d="M 60.929 146.687 L 131.57 202.052 C 131.57 202.052 114.111 201.133 108.598 206.991 C 108.598 206.991 111.699 197.572 115.834 192.863 L 101.246 203.66 C 101.246 203.66 105.038 190.221 108.368 187.234 C 108.368 187.234 98.834 193.781 92.632 199.295 C 92.632 199.295 94.355 188.038 99.639 181.146 C 99.639 181.146 93.206 185.626 86.315 191.485 C 86.315 191.485 87.118 179.079 90.105 174.255 L 77.47 184.019 L 83.328 168.167 L 67.936 177.931 L 71.152 159.208 C 71.152 159.208 60.011 161.85 52.2 172.187 C 52.315 172.073 51.396 158.289 60.929 146.687 Z" style="fill: rgb(51, 51, 51);"/>
  <path fill="#FFFFFF" stroke="#FFFFFF" stroke-width="1.0751" stroke-linecap="round" stroke-linejoin="round" stroke-miterlimit="10" d="M 48.524 141.749 L 136.969 208.484 C 136.969 208.484 168.787 227.207 168.787 188.613 C 168.787 150.019 168.787 148.64 168.787 148.64 L 91.483 97.411 C 91.483 97.411 85.51 92.472 80.111 99.363 C 74.714 106.256 48.524 141.749 48.524 141.749 Z"/>
  <path fill="#FFFFFF" stroke="#FFFFFF" stroke-miterlimit="10" d="M 153.394 198.721 C 153.394 198.721 156.152 199.18 155.463 202.742 C 154.774 206.302 154.199 207.336 151.557 206.877 C 148.915 206.416 149.145 203.89 149.72 201.248 C 150.293 198.606 151.671 198.491 153.394 198.721 Z"/>
  <path fill="#FFFFFF" stroke="#FFFFFF" stroke-miterlimit="10" d="M 146.503 181.146 C 146.503 181.146 147.652 178.39 149.259 179.424 C 150.868 180.457 150.753 181.146 149.259 182.18 C 147.767 183.214 145.814 184.019 146.503 181.146 Z"/>
  <circle fill="#1D1D1B" stroke="#1D1D1B" stroke-width="0.9855" stroke-linecap="round" stroke-linejoin="round" stroke-miterlimit="10" cx="114.004" cy="215.489" r="2.561" transform="matrix(1.031677, 0, 0, 1.031683, -22.226255, -77.351837)"/>
  <circle fill="#1D1D1B" stroke="#1D1D1B" stroke-width="0.9855" stroke-linecap="round" stroke-linejoin="round" stroke-miterlimit="10" cx="115.674" cy="227.18" r="2.561" transform="matrix(1.03168, 0, 0, 1.031683, -22.226622, -77.351929)"/>
  <circle fill="#1D1D1B" stroke="#1D1D1B" stroke-width="0.9855" stroke-linecap="round" stroke-linejoin="round" stroke-miterlimit="10" cx="104.54" cy="226.178" r="2.561" transform="matrix(1.031677, 0, 0, 1.031683, -22.226255, -77.351898)"/>
  <path fill="#1D1D1B" stroke="#FFFFFF" stroke-width="0.8412" stroke-linecap="round" stroke-linejoin="round" stroke-miterlimit="10" d="M 71.268 109.702 L 101.476 131.296 L 115.03 111.998 L 91.253 96.262 C 91.253 96.262 84.821 91.668 79.882 98.215 C 75.058 104.762 71.268 109.702 71.268 109.702 Z"/>
  <g transform="matrix(1.148638, 0, 0, 1.148638, -680.631897, -576.150085)">
    <ellipse transform="matrix(0.5016 -0.8651 0.8651 0.5016 -180.2445 931.1415)" fill="#1D1D1B" stroke="#FFFFFF" stroke-width="2.126" stroke-linecap="round" stroke-linejoin="round" stroke-miterlimit="10" cx="717.9" cy="622" rx="2" ry="2"/>
    <ellipse transform="matrix(0.5016 -0.8651 0.8651 0.5016 -173.597 931.1594)" fill="#FFFFFF" stroke="#FFFFFF" stroke-width="2.126" stroke-linecap="round" stroke-linejoin="round" stroke-miterlimit="10" cx="721.3" cy="616.2" rx="2" ry="2"/>
    <rect x="717.6" y="615.8" transform="matrix(0.8651 0.5016 -0.5016 0.8651 407.5713 -277.4211)" fill="#1D1D1B" stroke="#FFFFFF" stroke-width="2.126" stroke-linecap="round" stroke-linejoin="round" stroke-miterlimit="10" width="4" height="6.7"/>
    <ellipse transform="matrix(0.5016 -0.8651 0.8651 0.5016 -173.597 931.1594)" fill="#FFFFFF" stroke="#FFFFFF" stroke-width="2.126" stroke-miterlimit="10" cx="721.3" cy="616.2" rx="1.5" ry="1.5"/>
  </g>
  <g transform="matrix(1.148638, 0, 0, 1.148638, -680.631897, -576.150085)">
    <ellipse transform="matrix(0.5016 -0.8651 0.8651 0.5016 -180.2445 931.1415)" fill="#1D1D1B" stroke="#1D1D1B" stroke-width="0.8412" stroke-linecap="round" stroke-linejoin="round" stroke-miterlimit="10" cx="717.9" cy="622" rx="2" ry="2"/>
    <ellipse transform="matrix(0.5016 -0.8651 0.8651 0.5016 -173.597 931.1594)" fill="#FFFFFF" stroke="#1D1D1B" stroke-width="0.8412" stroke-linecap="round" stroke-linejoin="round" stroke-miterlimit="10" cx="721.3" cy="616.2" rx="2" ry="2"/>
    <rect x="717.6" y="615.8" transform="matrix(0.8651 0.5016 -0.5016 0.8651 407.5713 -277.4211)" fill="#1D1D1B" stroke="#1D1D1B" stroke-width="0.8412" stroke-linecap="round" stroke-linejoin="round" stroke-miterlimit="10" width="4" height="6.7"/>
    <ellipse transform="matrix(0.5016 -0.8651 0.8651 0.5016 -173.597 931.1594)" fill="#FFFFFF" stroke="#1D1D1B" stroke-miterlimit="10" cx="721.3" cy="616.2" rx="1.5" ry="1.5"/>
  </g>
  <g transform="matrix(1.148638, 0, 0, 1.148638, -680.631897, -576.150085)">
    <g>
      <ellipse transform="matrix(0.5016 -0.8651 0.8651 0.5016 -180.269 940.2593)" fill="#1D1D1B" stroke="#FFFFFF" stroke-width="2.126" stroke-linecap="round" stroke-linejoin="round" stroke-miterlimit="10" cx="725.8" cy="626.6" rx="2" ry="2"/>
      <ellipse transform="matrix(0.5016 -0.8651 0.8651 0.5016 -173.6216 940.2772)" fill="#1D1D1B" stroke="#FFFFFF" stroke-width="2.126" stroke-linecap="round" stroke-linejoin="round" stroke-miterlimit="10" cx="729.2" cy="620.8" rx="2" ry="2"/>
      <rect x="725.5" y="620.4" transform="matrix(0.8651 0.5016 -0.5016 0.8651 410.9341 -280.7658)" fill="#1D1D1B" stroke="#FFFFFF" stroke-width="2.126" stroke-linecap="round" stroke-linejoin="round" stroke-miterlimit="10" width="4" height="6.7"/>
      <ellipse transform="matrix(0.5016 -0.8651 0.8651 0.5016 -173.6216 940.2772)" fill="#FFFFFF" stroke="#FFFFFF" stroke-width="2.126" stroke-miterlimit="10" cx="729.2" cy="620.8" rx="1.5" ry="1.5"/>
    </g>
    <ellipse transform="matrix(0.5016 -0.8651 0.8651 0.5016 -180.269 940.2593)" fill="#1D1D1B" stroke="#1D1D1B" stroke-width="0.8412" stroke-linecap="round" stroke-linejoin="round" stroke-miterlimit="10" cx="725.8" cy="626.6" rx="2" ry="2"/>
    <ellipse transform="matrix(0.5016 -0.8651 0.8651 0.5016 -173.6216 940.2772)" fill="#1D1D1B" stroke="#1D1D1B" stroke-width="0.8412" stroke-linecap="round" stroke-linejoin="round" stroke-miterlimit="10" cx="729.2" cy="620.8" rx="2" ry="2"/>
    <rect x="725.5" y="620.4" transform="matrix(0.8651 0.5016 -0.5016 0.8651 410.9341 -280.7658)" fill="#1D1D1B" stroke="#1D1D1B" stroke-width="0.8412" stroke-linecap="round" stroke-linejoin="round" stroke-miterlimit="10" width="4" height="6.7"/>
    <ellipse transform="matrix(0.5016 -0.8651 0.8651 0.5016 -173.6216 940.2772)" fill="#FFFFFF" stroke="#1D1D1B" stroke-miterlimit="10" cx="729.2" cy="620.8" rx="1.5" ry="1.5"/>
  </g>
  <g transform="matrix(1.148638, 0, 0, 1.148638, -680.631897, -576.150085)">
    <ellipse transform="matrix(0.5651 -0.825 0.825 0.5651 -194.9616 807.6624)" fill="#FFFFFF" stroke="#FFFFFF" stroke-miterlimit="10" cx="668.6" cy="588.8" rx="1.9" ry="1.9"/>
    <ellipse transform="matrix(0.5651 -0.825 0.825 0.5651 -196.0424 816.9847)" fill="#FFFFFF" stroke="#FFFFFF" stroke-miterlimit="10" cx="676.9" cy="594.4" rx="1.9" ry="1.9"/>
    <rect x="667.7" y="589.7" transform="matrix(0.825 0.5651 -0.5651 0.825 452.0163 -276.6485)" fill="#FFFFFF" stroke="#FFFFFF" stroke-miterlimit="10" width="10.1" height="3.9"/>
  </g>
  <polyline fill="#FFFFFF" stroke="#FFFFFF" stroke-width="1.006" stroke-linecap="round" stroke-linejoin="round" stroke-miterlimit="10" points="185.787 246.734 185.787 289.233 204.509 289.233 204.509 246.734"/>
  <circle fill="#FFFFFF" stroke="#FFFFFF" stroke-width="1.006" stroke-linecap="round" stroke-linejoin="round" stroke-miterlimit="10" cx="196.307" cy="284.119" r="9.304" transform="matrix(1.000002, 0, 0, 1, -1.217222, -37.383961)"/>
  <path fill="#FFFFFF" stroke="#FFFFFF" stroke-miterlimit="10" d="M 204.624 246.619 L 204.394 262.93 C 204.394 262.93 184.638 256.497 195.894 236.856 C 195.894 236.856 204.394 238.579 204.624 246.619 Z"/>
  <circle fill="#FFFFFF" stroke="#FFFFFF" stroke-width="1.006" stroke-linecap="round" stroke-linejoin="round" stroke-miterlimit="10" cx="174.253" cy="330.179" r="6.202" transform="matrix(0.999998, 0, 0, 1, -1.216471, -37.383961)"/>
  <circle fill="#FFFFFF" stroke="#FFFFFF" stroke-width="1.006" stroke-linecap="round" stroke-linejoin="round" stroke-miterlimit="10" cx="210.644" cy="355.774" r="9.018" transform="matrix(1.031677, 0, 0, 1.03168, -22.226255, -77.351746)"/>
  <polygon fill="#FFFFFF" stroke="#FFFFFF" stroke-width="1.006" stroke-linecap="round" stroke-linejoin="round" stroke-miterlimit="10" points="173.036 286.707 173.036 298.997 195.091 298.997 195.091 280.389"/>
  <polyline fill="#FFFFFF" stroke="#FFFFFF" stroke-width="1.006" stroke-linecap="round" stroke-linejoin="round" stroke-miterlimit="10" points="284.454 246.734 284.454 289.233 303.063 289.233 303.063 246.734"/>
  <circle fill="#FFFFFF" stroke="#FFFFFF" stroke-width="1.006" stroke-linecap="round" stroke-linejoin="round" stroke-miterlimit="10" cx="306.283" cy="314.134" r="9.018" transform="matrix(1.031674, 0, 0, 1.031677, -22.225172, -77.350517)"/>
  <path fill="#FFFFFF" stroke="#FFFFFF" stroke-miterlimit="10" d="M 284.454 255.463 C 284.454 255.463 291.921 256.152 291.921 265.113 C 291.921 274.072 284.454 277.862 284.454 277.862 L 284.454 255.463 Z"/>
  <circle fill="#FFFFFF" stroke="#FFFFFF" stroke-width="1.006" stroke-linecap="round" stroke-linejoin="round" stroke-miterlimit="10" cx="285.017" cy="358.335" r="6.012" transform="matrix(1.031672, 0, 0, 1.031677, -22.224749, -77.350517)"/>
  <circle fill="#FFFFFF" stroke="#FFFFFF" stroke-width="1.006" stroke-linecap="round" stroke-linejoin="round" stroke-miterlimit="10" cx="306.395" cy="355.33" r="9.018" transform="matrix(1.031674, 0, 0, 1.031677, -22.226261, -77.351761)"/>
  <polygon fill="#FFFFFF" stroke="#FFFFFF" stroke-width="1.006" stroke-linecap="round" stroke-linejoin="round" stroke-miterlimit="10" points="271.82 286.248 271.82 298.538 293.874 298.538 293.874 279.93"/>
  <path fill="#FFFFFF" stroke="#FFFFFF" stroke-miterlimit="10" d="M 266.191 294.862 C 266.191 294.862 270.441 284.409 279.975 289.233 C 279.975 289.233 285.603 292.795 284.569 298.538 L 271.82 298.538 C 271.82 298.538 268.029 298.422 266.191 294.862 Z"/>
  <rect x="181.881" y="148.64" fill="#FFFFFF" stroke="#FFFFFF" stroke-width="1.0083" stroke-linecap="round" stroke-linejoin="round" stroke-miterlimit="10" width="121.182" height="98.094"/>
  <circle fill="#FFFFFF" stroke="#FFFFFF" stroke-width="1.006" stroke-linecap="round" stroke-linejoin="round" stroke-miterlimit="10" cx="194.975" cy="246.734" r="9.304"/>
  <circle fill="#FFFFFF" stroke="#FFFFFF" stroke-width="1.0083" stroke-linecap="round" stroke-linejoin="round" stroke-miterlimit="10" cx="306.283" cy="314.134" r="9.018" transform="matrix(1.031674, 0, 0, 1.031677, -22.225172, -77.350517)"/>
  <circle fill="#FFFFFF" stroke="#FFFFFF" stroke-width="1.0083" stroke-linecap="round" stroke-linejoin="round" stroke-miterlimit="10" cx="299.685" cy="186.025" r="4.71" transform="matrix(1.000006, 0, 0, 1.000003, -1.218857, -37.384548)"/>
  <path fill="#FFFFFF" stroke="#FFFFFF" stroke-miterlimit="10" d="M 227.023 148.64 C 227.023 148.64 208.645 176.437 231.387 193.437 C 254.13 210.437 269.522 189.073 271.589 180.573 C 273.657 172.073 273.657 156.451 266.995 148.64 L 227.023 148.64 Z"/>
  <path fill="#FFFFFF" stroke="#FFFFFF" stroke-miterlimit="10" d="M 303.063 190.566 L 303.063 240.875 C 303.063 240.875 281.468 239.727 280.664 223.416 C 279.86 207.106 290.428 192.289 303.063 190.566 Z"/>
  <path fill="#FFFFFF" stroke="#FFFFFF" stroke-miterlimit="10" d="M 204.28 246.734 L 226.104 246.734 C 226.104 246.734 224.955 229.619 210.023 229.045 C 195.091 228.471 186.821 247.193 194.975 256.038 C 194.975 256.038 197.962 257.416 201.523 254.315 C 204.05 251.214 204.164 249.836 204.28 246.734 Z"/>
  <path fill="#FFFFFF" stroke="#FFFFFF" stroke-miterlimit="10" d="M 284.454 179.079 C 284.454 179.079 289.623 177.012 289.968 182.296 C 290.312 187.579 285.144 191.255 282.501 188.268 C 279.86 185.281 281.009 181.951 284.454 179.079 Z"/>
  <path fill="#FFFFFF" stroke="#FFFFFF" stroke-miterlimit="10" d="M 297.089 165.869 C 297.089 165.869 295.826 168.167 298.468 169.316 C 301.11 170.465 302.258 167.592 300.88 163.573 C 299.501 159.552 297.089 165.869 297.089 165.869 Z"/>
  <path fill="#FFFFFF" stroke="#FFFFFF" stroke-miterlimit="10" d="M 284.454 159.552 C 284.454 159.552 282.501 161.161 285.488 162.195 C 288.475 163.343 287.556 157.6 284.454 159.552 Z"/>
  <path fill="#FFFFFF" stroke="#FFFFFF" stroke-miterlimit="10" d="M 199.456 165.869 C 199.456 165.869 192.563 169.316 194.975 176.781 C 197.388 184.248 201.982 182.296 204.28 180.802 C 206.577 179.309 210.023 177.012 208.185 169.545 C 206.347 162.195 199.456 165.869 199.456 165.869 Z"/>
  <path fill="#FFFFFF" stroke="#FFFFFF" stroke-miterlimit="10" d="M 206.922 202.397 C 206.922 202.397 206.462 205.268 209.334 206.072 C 212.205 206.877 213.583 205.498 213.813 202.397 C 214.043 199.295 211.63 197.343 209.334 197.687 C 207.036 198.032 206.922 202.397 206.922 202.397 Z"/>
  <path fill="#FFFFFF" stroke="#FFFFFF" stroke-miterlimit="10" d="M 231.617 217.328 C 231.617 217.328 229.32 225.139 237.36 225.369 C 245.4 225.599 244.827 217.099 242.529 213.883 C 240.232 210.667 234.488 209.518 231.617 217.328 Z"/>
  <path fill="#FFFFFF" stroke="#FFFFFF" stroke-miterlimit="10" d="M 252.867 231.916 C 252.867 231.916 255.739 232.491 257.691 227.092 C 259.644 221.693 255.968 222.268 252.867 222.498 C 249.765 222.727 248.503 230.538 252.867 231.916 Z"/>
  <path fill="#FFFFFF" stroke="#FFFFFF" stroke-miterlimit="10" d="M 265.502 233.41 C 265.502 233.41 261.827 238.004 267.224 240.875 C 272.623 243.748 274.346 240.875 274.346 237.201 C 274.346 233.525 272.394 225.369 265.502 233.41 Z"/>
  <path fill="#FFFFFF" stroke="#FFFFFF" stroke-miterlimit="10" d="M 269.293 213.538 C 269.293 213.538 268.948 216.984 272.623 216.984 C 276.299 216.984 276.069 214.113 274.346 211.356 C 272.623 208.599 269.752 209.518 269.293 213.538 Z"/>
  <rect x="164.076" y="141.519" fill="#FFFFFF" stroke="#FFFFFF" stroke-width="1.006" stroke-linecap="round" stroke-linejoin="round" stroke-miterlimit="10" width="21.594" height="109.695"/>
  <polygon fill="#FFFFFF" stroke="#FFFFFF" stroke-width="0.9855" stroke-linecap="round" stroke-linejoin="round" stroke-miterlimit="10" points="169.591 141.519 175.104 125.667 180.273 141.519"/>
  <polygon fill="#FFFFFF" stroke="#FFFFFF" stroke-width="0.9855" stroke-linecap="round" stroke-linejoin="round" stroke-miterlimit="10" points="169.591 251.214 175.104 266.95 180.273 251.214"/>
  <path fill="#FFFFFF" stroke="#FFFFFF" stroke-width="0.9855" stroke-linecap="round" stroke-linejoin="round" stroke-miterlimit="10" d="M 169.591 158.174 L 175.219 148.066 L 180.273 158.174 C 180.273 158.174 179.928 161.045 174.875 161.045 C 169.821 161.045 169.591 158.174 169.591 158.174 Z"/>
  <path fill="#FFFFFF" stroke="#FFFFFF" stroke-width="0.9855" stroke-linecap="round" stroke-linejoin="round" stroke-miterlimit="10" d="M 169.591 235.248 L 175.219 245.356 L 180.273 235.248 C 180.273 235.248 179.928 232.376 174.875 232.376 C 169.821 232.376 169.591 235.248 169.591 235.248 Z"/>
  <circle fill="#FFFFFF" stroke="#FFFFFF" stroke-width="0.9855" stroke-linecap="round" stroke-linejoin="round" stroke-miterlimit="10" cx="191.16" cy="265.591" r="5.121" transform="matrix(1.031683, 0, 0, 1.031674, -22.227449, -77.349739)"/>
  <circle fill="#FFFFFF" stroke="#FFFFFF" stroke-width="0.9855" stroke-linecap="round" stroke-linejoin="round" stroke-miterlimit="10" cx="191.16" cy="245.55" r="5.121" transform="matrix(1.031683, 0, 0, 1.03168, -22.227446, -77.351257)"/>
  <circle fill="#FFFFFF" stroke="#FFFFFF" stroke-width="0.9855" stroke-linecap="round" stroke-linejoin="round" stroke-miterlimit="10" cx="191.049" cy="286.411" r="5.121" transform="matrix(1.031683, 0, 0, 1.031674, -22.227446, -77.349648)"/>
  <polygon fill="#FFFFFF" stroke="#FFFFFF" stroke-width="0.9855" stroke-linecap="round" stroke-linejoin="round" stroke-miterlimit="10" points="162.239 150.938 162.239 91.324 211.63 91.324 174.989 105.337"/>
  <rect x="293.874" y="100.858" fill="#FFFFFF" stroke="#FFFFFF" stroke-width="1.0751" stroke-linecap="round" stroke-linejoin="round" stroke-miterlimit="10" width="9.189" height="47.783"/>
  <circle fill="#FFFFFF" stroke="#FFFFFF" stroke-width="0.9855" stroke-linecap="round" stroke-linejoin="round" stroke-miterlimit="10" cx="310.847" cy="172.736" r="4.453" transform="matrix(1.031669, 0, 0, 1.031677, -22.224043, -77.350517)"/>
  <polygon fill="#FFFFFF" stroke="#FFFFFF" stroke-width="1.1411" stroke-miterlimit="10" points="303.063 116.593 293.874 124.289 293.874 100.857 303.063 100.857"/>
  <circle fill="#FFFFFF" stroke="#FFFFFF" stroke-width="1.0083" stroke-linecap="round" stroke-linejoin="round" stroke-miterlimit="10" cx="299.685" cy="186.025" r="4.71" transform="matrix(1.000006, 0, 0, 1.000003, -1.218857, -37.384548)"/>
  <path fill="#FFFFFF" stroke="#FFFFFF" stroke-miterlimit="10" d="M 293.758 145.768 C 293.758 145.768 299.042 145.998 299.042 140.944 C 299.042 135.89 293.758 136.924 293.758 136.924 L 293.758 145.768 Z"/>
  <circle fill="#FFFFFF" stroke="#FFFFFF" stroke-width="0.9855" stroke-miterlimit="10" cx="299.685" cy="138.356" r="4.71" transform="matrix(1.000006, 0, 0, 1, -1.218857, -37.383945)"/>
  <polygon fill="#FFFFFF" stroke="#FFFFFF" stroke-width="0.9855" stroke-linecap="round" stroke-linejoin="round" stroke-miterlimit="10" points="298.468 105.681 266.076 96.262 298.468 96.262"/>
  <line fill="none" stroke="#FFFFFF" stroke-width="4.252" stroke-linecap="round" stroke-linejoin="round" stroke-miterlimit="10" x1="62.997" y1="202.281" x2="22.335" y2="177.931"/>
  <line fill="none" stroke="#FFFFFF" stroke-width="4.252" stroke-linecap="round" stroke-linejoin="round" stroke-miterlimit="10" x1="62.997" y1="226.748" x2="22.335" y2="251.098"/>
  <line fill="none" stroke="#FFFFFF" stroke-width="4.252" stroke-linecap="round" stroke-linejoin="round" stroke-miterlimit="10" x1="12.457" y1="215.032" x2="58.403" y2="215.032"/>
</svg>